# xmcd
#
# Track frame offsets: 
#        150
#        10496
#        24857
#        40373
#        61066
#        77489
#        96166
#        105227
#        125554
#        149511
#        168294
#        184112
#
# Disc length: 2632 seconds
#
# Revision: 0
# Processed by: cddbd v1.5.2PL0 Copyright (c) Steve Scherf et al.
# Submitted via: ExactAudioCopy v1.0b2
#
DISCID=910a460c
DTITLE=Various Artist - A Tribute to Na Lani 'Eha
DYEAR=2010
DGENRE=Soul
TTITLE0=KAWAIKAPUOKALANI HEWETT - Lili'u E (chant)
TTITLE1=DEL BEAZLEY - Queen's Prayer
TTITLE2=LOIS "MOON" KAUAKAHI - Ninipo
TTITLE3=MANU BOYD - Ke Ka'upu
TTITLE4=TERESA BRIGHT - Kalakaua
TTITLE5=CYRIL PAHINUI - Sanoe
TTITLE6=KAWAIKAPUOKALANI HEWETT - 'Anapau (chant)
TTITLE7=DEL BEAZLEY - Nani Ke Li'i Ki'eki'e - Lei Maika'i, Lei O Ka Na
TTITLE7=ni
TTITLE8=TERESA BRIGHT - Ku'u Pua I Paoakalani
TTITLE9=MANU BOYD - 'Ainahau
TTITLE10=CYRIL PAHINUI - Moani Ke 'Ala
TTITLE11=LOIS "MOON" KAUAKAHI - Ka 'Oiwi Nani
EXTD=
EXTT0=
EXTT1=
EXTT2=
EXTT3=
EXTT4=
EXTT5=
EXTT6=
EXTT7=
EXTT8=
EXTT9=
EXTT10=
EXTT11=
PLAYORDER=
